<svg id="Layer_1" xmlns="http://www.w3.org/2000/svg" viewBox="0 0 145 26.8"><style>.st0{fill:#C6C6C6}</style><path class="st0" d="M12.4 0c1.3 0 2.4.1 3.4.3 1 .2 1.9.6 2.7 1.1.7.5 1.3 1.2 1.7 2 .4.8.6 1.9.6 3.1 0 1.3-.3 2.4-.9 3.3-.6.9-1.5 1.6-2.7 2.2 1.6.5 2.8 1.3 3.6 2.5.8 1.2 1.2 2.6 1.2 4.2 0 1.3-.3 2.5-.8 3.5S20 24 19.1 24.6c-.9.6-1.9 1.1-3 1.4-1.1.3-2.3.4-3.4.4H0V0h12.4zm-.7 10.6c1 0 1.9-.2 2.6-.7.7-.5 1-1.3 1-2.4 0-.6-.1-1.1-.3-1.5-.2-.4-.5-.7-.9-.9-.4-.2-.8-.4-1.3-.5-.5-.1-1-.1-1.5-.1H5.8v6.2h5.9zm.3 11.2c.6 0 1.1-.1 1.6-.2s1-.3 1.4-.6c.4-.3.7-.6.9-1.1.2-.4.3-1 .3-1.7 0-1.4-.4-2.3-1.1-2.9-.8-.6-1.8-.9-3-.9H5.8v7.3H12zm18.3 0c.8.8 1.9 1.2 3.4 1.2 1.1 0 2-.3 2.7-.8.8-.5 1.2-1.1 1.4-1.7h4.6c-.7 2.3-1.9 3.9-3.4 4.9-1.5 1-3.4 1.5-5.5 1.5-1.5 0-2.9-.2-4.1-.7-1.2-.5-2.2-1.2-3.1-2-.8-.9-1.5-1.9-1.9-3.2-.5-1.2-.7-2.6-.7-4.1 0-1.4.2-2.8.7-4 .5-1.2 1.1-2.3 2-3.2.9-.9 1.9-1.6 3.1-2.1 1.2-.5 2.5-.8 4-.8 1.6 0 3 .3 4.2.9 1.2.6 2.2 1.5 3 2.5.8 1.1 1.3 2.3 1.7 3.6.3 1.4.5 2.8.4 4.2H29c0 1.6.5 3 1.3 3.8zm6-10.1c-.6-.7-1.7-1.1-3-1.1-.8 0-1.5.1-2.1.4-.5.3-1 .6-1.3 1.1-.3.4-.6.9-.7 1.3-.1.6-.2 1-.2 1.4h8.5c-.1-1.4-.5-2.4-1.2-3.1zM50.2 0v9.9h.1c.7-1.1 1.5-1.9 2.6-2.4 1-.5 2-.8 3-.8 1.4 0 2.5.2 3.4.6.9.4 1.6.9 2.1 1.6.5.7.9 1.5 1.1 2.5.2 1 .3 2 .3 3.2v11.7h-5.3V15.6c0-1.6-.2-2.8-.7-3.5-.5-.8-1.4-1.2-2.6-1.2-1.4 0-2.4.4-3.1 1.3-.6.8-1 2.2-1 4.2v10H45V0h5.2zm16.4 10.1c.5-.8 1.2-1.5 2.1-2 .8-.5 1.8-.8 2.8-1.1 1-.2 2.1-.3 3.2-.3 1 0 1.9.1 2.9.2s1.9.4 2.7.8c.8.4 1.5.9 2 1.6.5.7.8 1.6.8 2.8V22c0 .9.1 1.7.1 2.5.1.8.4 1.4.6 1.8h-5.4c-.2-.2-.3-.6-.3-.9-.1-.3-.1-.6-.1-.9-.8.9-1.8 1.5-2.9 1.8-1.1.3-2.3.5-3.5.5-.9 0-1.8-.1-2.5-.3-.8-.2-1.5-.6-2.1-1-.6-.5-1-1.1-1.4-1.8-.3-.7-.5-1.6-.5-2.6 0-1.1.2-2 .6-2.7.4-.7.9-1.3 1.5-1.7.6-.4 1.3-.7 2.1-.9.8-.2 1.6-.4 2.3-.5.8-.1 1.6-.2 2.3-.3.8-.1 1.4-.2 2-.3.6-.1 1.1-.4 1.4-.6.3-.3.5-.7.5-1.2 0-.6-.1-1-.3-1.3-.2-.3-.4-.6-.7-.8-.3-.2-.7-.3-1.1-.4-.4-.1-.8-.1-1.3-.1-1 0-1.8.2-2.4.7-.6.5-.9 1.2-1 2.2h-5.3c0-1.3.3-2.3.9-3.1zm10.3 7.4c-.3.1-.7.2-1.1.3-.4.1-.8.1-1.2.2-.4 0-.8.1-1.2.2l-1.2.3c-.4.1-.7.3-1 .5-.3.2-.5.5-.7.8-.2.3-.3.7-.3 1.2s.1.9.3 1.2c.2.3.4.6.7.8.3.2.6.3 1 .4.4.1.8.1 1.2.1 1 0 1.8-.2 2.4-.5.6-.3 1-.8 1.3-1.2.3-.5.4-1 .5-1.5.1-.5.1-.9.1-1.2v-2c-.2.1-.5.3-.8.4zM90.8 7.3V10h.2c.7-1.1 1.5-1.9 2.6-2.4s2.1-.8 3.2-.8c1.4 0 2.6.2 3.4.6.9.4 1.6.9 2.1 1.6.5.7.9 1.5 1.1 2.5.2 1 .3 2 .3 3.2v11.7h-5.3V15.6c0-1.6-.2-2.8-.7-3.5-.5-.8-1.4-1.3-2.6-1.3-1.4 0-2.5.5-3.1 1.4-.6.8-1 2.2-1 4.2v10h-5.2V7.3h5zm24.6 3.4c-.8 0-1.5.2-2.1.6-.6.4-1 .9-1.4 1.5-.4.6-.6 1.3-.8 2-.1.7-.2 1.4-.2 2.2 0 .7.1 1.4.2 2.1.2.7.4 1.4.7 1.9.3.6.8 1 1.4 1.4.6.4 1.2.6 2.1.6 1.3 0 2.2-.4 2.9-1 .7-.7 1.1-1.6 1.3-2.8h5.1c-.3 2.5-1.3 4.5-3 5.8-1.6 1.3-3.7 2-6.2 2-1.4 0-2.7-.2-3.9-.7-1.2-.5-2.2-1.2-3.1-2-.8-.9-1.5-1.9-2-3.1-.5-1.2-.7-2.5-.7-3.9 0-1.5.2-2.9.6-4.1.4-1.3 1.1-2.4 1.9-3.3.8-.9 1.9-1.6 3.1-2.2 1.2-.5 2.6-.8 4.1-.8 1.1 0 2.2.2 3.3.4 1 .3 2 .7 2.8 1.3.8.6 1.5 1.3 2 2.2.5.9.8 2 .9 3.2h-5.1c-.3-2.2-1.6-3.3-3.9-3.3zM27.9 1.8h10.7v2.6H27.9zm104.5 20c.8.8 2 1.2 3.5 1.2 1.1 0 2-.3 2.7-.8.8-.5 1.2-1.1 1.4-1.7h4.6c-.7 2.3-1.9 3.9-3.4 4.9-1.5 1-3.4 1.5-5.5 1.5-1.5 0-2.9-.2-4.1-.7-1.2-.5-2.2-1.2-3.1-2-.8-.9-1.5-1.9-1.9-3.2-.5-1.2-.7-2.6-.7-4.1 0-1.4.2-2.8.7-4 .5-1.2 1.1-2.3 2-3.2.9-.9 1.9-1.6 3.1-2.1 1.2-.5 2.5-.8 4-.8 1.6 0 3 .3 4.2.9 1.2.6 2.2 1.5 3 2.5.8 1.1 1.3 2.3 1.7 3.6.3 1.4.5 2.8.4 4.2h-13.8c-.1 1.6.4 3 1.2 3.8zm6.1-10.1c-.6-.7-1.7-1.1-3-1.1-.8 0-1.5.1-2.1.4-.5.3-1 .6-1.4 1.1-.3.4-.6.9-.7 1.3-.1.5-.2.9-.2 1.3h8.6c-.1-1.3-.6-2.3-1.2-3z"/></svg>
