<svg id="Layer_1" xmlns="http://www.w3.org/2000/svg" viewBox="0 0 170 40"><style>.st0{fill:#fff}</style><path class="st0" d="M0 5.9h6.2v22.5h11.4v5.7H0zM20.3 15h5.9v19.1h-5.9V15zm3-9.5c1.9 0 3.4 1.5 3.4 3.4s-1.5 3.4-3.4 3.4-3.4-1.5-3.4-3.4 1.5-3.4 3.4-3.4m27.7.4h6v16.9l6.7-7.8H71l-7.8 8.8 7.6 10.3h-7.5l-6.2-9.5H57v9.5h-6zM29.5 15h5.7v2.6h.1c.8-1.5 2.7-3.1 5.6-3.1 6 0 7.1 4 7.1 9.1v10.5h-5.9v-9.3c0-2.2 0-5.1-3.1-5.1s-3.6 2.4-3.6 4.9V34h-5.9V15z"/><path class="st0" d="M83.4 22.3c0-2-1.5-3.6-3.6-3.6-2.6 0-4 1.8-4.2 3.6h7.8zm5.1 8.5c-1.9 2.4-5 3.8-8.1 3.8-5.9 0-10.7-4-10.7-10.1s4.7-10.1 10.7-10.1c5.5 0 9 4 9 10.1v1.9H75.6c.5 2.3 2.2 3.7 4.5 3.7 1.9 0 3.2-1 4.2-2.3l4.2 3zm13.2-11.2c-3 0-4.7 2-4.7 4.9 0 2.9 1.8 4.9 4.7 4.9 3 0 4.7-2 4.7-4.9.1-2.9-1.7-4.9-4.7-4.9m10.2 14.5h-5.5v-2.5h-.1c-.9 1.4-3.2 3-5.9 3-5.7 0-9.5-4.1-9.5-9.9 0-5.3 3.3-10.2 8.8-10.2 2.5 0 4.7.7 6.1 2.5h.1V6h5.9v28.1zm54.1-3.3c.8-.1 1.3-.6 1.3-1.3 0-1-.6-1.4-1.8-1.4h-1.9v5h.7v-2.2h.9l1.4 2.2h.8l-1.4-2.3zm-.8-.5h-.8v-1.7h1.1c.5 0 1.2.1 1.2.8-.1.9-.8.9-1.5.9z"/><path class="st0" d="M165.3 25.9c-2.7 0-4.7 2.1-4.7 4.7 0 2.7 2.1 4.7 4.7 4.7 2.7 0 4.7-2.1 4.7-4.7 0-2.7-2.1-4.7-4.7-4.7zm0 8.8c-2.3 0-4-1.8-4-4.1s1.8-4.1 4-4.1c2.3 0 4 1.8 4 4.1s-1.8 4.1-4 4.1zM154.9 0h-34.1c-1.6 0-3 1.3-3 2.9v34.2c0 1.6 1.3 2.9 3 2.9h34.1c1.6 0 3-1.3 3-2.9V2.9c0-1.6-1.4-2.9-3-2.9zm-25.2 34.1h-5.9V15h5.9v19.1zm-2.9-21.7c-1.9 0-3.4-1.5-3.4-3.4s1.5-3.4 3.4-3.4 3.4 1.5 3.4 3.4-1.5 3.4-3.4 3.4zM152 34.1h-6v-9.3c0-2.2 0-5.1-3.1-5.1s-3.6 2.4-3.6 4.9V34h-5.9V15h5.7v2.6h.1c.8-1.5 2.7-3.1 5.6-3.1 6 0 7.1 4 7.1 9.1v10.5z"/></svg>