<svg width="107" height="73" viewBox="0 0 107 73" xmlns="http://www.w3.org/2000/svg" xmlns:xlink="http://www.w3.org/1999/xlink"><title>Page 1</title><defs><path id="a" d="M0 72.17h95.92V.811H0z"/><path id="c" d="M13.565 11.538V.673H.533v10.865h13.032z"/></defs><g fill="none" fill-rule="evenodd"><g transform="translate(0 .018)"><mask id="b" fill="#fff"><use xlink:href="#a"/></mask><path d="M90.15 39.675a9.685 9.685 0 0 0-.284-1.225l-.124-.278c-.402-.659-1.133-.938-1.862-.714l-.28.125c-.658.401-.938 1.132-.713 1.864a7.71 7.71 0 0 1 .329 2.229 7.832 7.832 0 0 1-.3 2.25 5.302 5.302 0 0 1-.878 1.761 2.39 2.39 0 0 1-1.22.86c-.393.122-.73.162-1.003.12a1.517 1.517 0 0 1-.667-.256 1.976 1.976 0 0 1-.528-.594 4.623 4.623 0 0 1-.447-1.012 9.757 9.757 0 0 1-.415-2.543 56.233 56.233 0 0 1-.041-2.403 33.46 33.46 0 0 1 .385-4.427 96.11 96.11 0 0 1 .782-4.486c.28-1.402.578-2.67.887-3.767.306-1.091.56-1.923.756-2.468a41.678 41.678 0 0 1 1.667-3.985 32.15 32.15 0 0 1 3.956 18.949m-32.2 29.177c-8.545 0-16.322-3.336-22.112-8.767.457.055.935.014 1.429-.139.994-.307 1.73-.86 2.19-1.645.394-.674.62-1.42.672-2.216a8.07 8.07 0 0 0-.148-2.15 17.74 17.74 0 0 0-.397-1.613c-.106-.338-.21-.658-.317-.959-.096-.269-.19-.557-.285-.862a42.813 42.813 0 0 1-1.19-4.8 71.89 71.89 0 0 1 2.303-6.239 96.827 96.827 0 0 1 2.883-6.218 74.788 74.788 0 0 1 3.11-5.543c.37-.596.74-1.16 1.11-1.709.047.03.085.07.133.098a6.63 6.63 0 0 0 2.293.851c.754.125 1.443.15 2.047.072.294-.037.528-.07.728-.114-.053.284-.108.566-.161.859a107.093 107.093 0 0 0-.853 5.609 66.02 66.02 0 0 0-.484 6.114 59.398 59.398 0 0 0 .114 6.191c.148 2.084.475 4.085.984 5.994.15.483.324.982.52 1.487.212.544.48 1.077.792 1.58a7.723 7.723 0 0 0 1.201 1.48 6.73 6.73 0 0 0 1.715 1.192c1.834.902 3.842 1.023 5.967.368 1.144-.353 2.1-.884 2.846-1.578.687-.642 1.243-1.306 1.652-1.975.405-.663.687-1.243.863-1.778.099-.302.164-.497.196-.586.062-.139.098-.285.116-.432.103.004.205.015.308.015h.054a10.405 10.405 0 0 0 3.007-.438c1.395-.43 2.629-.995 3.667-1.676a13.425 13.425 0 0 0 2.72-2.345c.506-.578.97-1.197 1.382-1.852.055.216.114.428.178.637.201.651.473 1.257.804 1.797.374.61.849 1.11 1.411 1.484a4.572 4.572 0 0 0 1.985.72c.727.088 1.531.001 2.386-.263a5.363 5.363 0 0 0 2.447-1.58C83.587 60.14 71.77 68.852 57.95 68.852M25.837 38.268c.929-2.423 1.915-4.662 2.929-6.655.99-1.95 2.039-3.61 3.113-4.933.857-1.057 1.763-1.785 2.748-2.18.007.067.015.146.02.239.018.287.001.675-.048 1.14a176.419 176.419 0 0 0-.477 4.686 69.26 69.26 0 0 0-.155 9.92c.089 1.633.281 3.318.573 5.012-.243.828-.48 1.648-.707 2.459a42.932 42.932 0 0 0-.674 2.73 27.19 27.19 0 0 0-.336 1.355 18.864 18.864 0 0 0-.28 1.587 11.758 11.758 0 0 0-.103 1.727c.007.41.06.8.133 1.178a32.186 32.186 0 0 1-6.897-17.84l.16-.425M57.95 4.129c6.74 0 13.003 2.074 18.19 5.614a4.187 4.187 0 0 0-1.73.178 5.455 5.455 0 0 0-2.041 1.147c-.511.454-.99.966-1.421 1.521-.422.542-.812 1.12-1.159 1.72-.214.367-.425.717-.632 1.048-1.009.19-1.957.3-2.826.327-1.04.033-2.056.015-3.018-.05a64.182 64.182 0 0 1-2.846-.253 40.05 40.05 0 0 0-2.902-.218c-1.002-.038-2.045 0-3.101.113-1.078.116-2.221.36-3.397.723-.764.236-1.53.557-2.277.954-.798.424-1.49.94-2.059 1.537a5.677 5.677 0 0 0-1.306 2.197c-.238.755-.246 1.58-.049 2.452a59.638 59.638 0 0 0-1.537 2.273 75.59 75.59 0 0 0-3.216 5.538 90.332 90.332 0 0 0-3.598 7.694 59.84 59.84 0 0 1 .013-3.703c.05-1.468.137-2.94.255-4.376.119-1.446.26-2.892.418-4.3a10.42 10.42 0 0 0 .073-1.703 5.372 5.372 0 0 0-.214-1.31c-.224-.722-.632-1.28-1.215-1.656-.45-.29-1.22-.562-2.332-.216-1.172.362-2.3 1.056-3.353 2.064-.979.936-1.935 2.106-2.842 3.478a33.772 33.772 0 0 0-1.417 2.363C29.696 14.899 42.585 4.13 57.95 4.13m26.324 13.578c-.267.496-.531 1.01-.792 1.54-1.074 2.184-2.044 4.74-2.884 7.598-.842 2.866-1.449 6.146-1.795 9.703a19.572 19.572 0 0 1-.924 3.863 13.425 13.425 0 0 1-1.683 3.294 11.908 11.908 0 0 1-2.51 2.593c-.96.733-2.096 1.307-3.378 1.702a6.89 6.89 0 0 1-2.248.31 5.688 5.688 0 0 1-2.104-.469c-.654-.283-1.226-.708-1.747-1.299-.52-.588-.933-1.37-1.228-2.323-.257-.829-.394-1.778-.412-2.823a21.09 21.09 0 0 1 .238-3.454c.18-1.213.443-2.467.783-3.725a49.07 49.07 0 0 1 1.181-3.762 53.419 53.419 0 0 1 1.42-3.546c.5-1.122 1.003-2.15 1.503-3.059a75.139 75.139 0 0 1 1.89-3.286 101.81 101.81 0 0 1 1.508-2.393 27.34 27.34 0 0 0 1.885-.507c.427-.132.96-.31 1.604-.535.704-.245 1.38-.561 2.004-.941a5.47 5.47 0 0 0 1.692-1.556c.379-.546.749-1.458.363-2.71a4.062 4.062 0 0 0-.158-.425 32.597 32.597 0 0 1 5.792 6.21m-32.439 6.084a4.197 4.197 0 0 1-1.137.13 3.805 3.805 0 0 1-1.078-.164 1.881 1.881 0 0 1-.582-.307c.07-.087.139-.181.208-.268 1.024-1.279 2.022-2.346 2.966-3.172.772-.676 1.48-1.14 2.107-1.382a5.616 5.616 0 0 1-.154.96 70.724 70.724 0 0 0-1.15 4.368c-.33-.183-.736-.25-1.18-.165M35.743 53.976c.069-.595.19-1.318.363-2.156.062.19.128.385.199.585.092.257.185.54.278.844.115.37.22.804.314 1.293.082.432.112.86.088 1.268-.02.331-.096.612-.232.862-.028.048-.1.177-.413.274-.095.029-.146.028-.202-.008a1.61 1.61 0 0 1-.46-.71c-.002-.006-.038-.15-.048-.604-.008-.379.03-.933.113-1.648m18.414-15.919c.098-1.501.227-2.975.384-4.372.247-2.073.56-3.994.927-5.707.377-1.747.723-3.285 1.04-4.613a99.45 99.45 0 0 0 .766-3.42 7.873 7.873 0 0 0 .174-1.6c.828.024 1.674.08 2.517.168.929.098 1.884.182 2.866.25 1 .07 2.07.095 3.178.076.321-.006.65-.02.984-.042-.347.571-.7 1.163-1.058 1.772a56.707 56.707 0 0 0-2.506 4.802 53.25 53.25 0 0 0-2.178 5.501 39.97 39.97 0 0 0-1.518 6.157c-.278 1.675-.39 3.19-.332 4.501.056 1.335.252 2.551.582 3.618.461 1.495 1.15 2.723 2.044 3.648a8.519 8.519 0 0 0 2.784 1.947c-.025.077-.058.149-.072.231-.027.094-.083.267-.167.518-.1.302-.286.672-.552 1.1-.26.418-.632.85-1.107 1.285-.422.388-.976.689-1.645.895a5.634 5.634 0 0 1-1.88.25 4.299 4.299 0 0 1-1.776-.421c-.668-.338-1.164-.774-1.517-1.337a8.49 8.49 0 0 1-.936-2.006l-.137-.442a26.03 26.03 0 0 1-.742-3.981 43.474 43.474 0 0 1-.249-4.322 62.11 62.11 0 0 1 .126-4.456M95.844 7.668l-.084-.273-.098-.147c-.4-.61-1.09-.87-1.765-.66a1.401 1.401 0 0 0-.465.253c-.166.112-.434.306-.93.664-.673.487-1.485 1.219-2.483 2.237-.98.999-2.052 2.295-3.19 3.853-.24.327-.478.677-.715 1.033C79.58 6.23 69.389.811 57.95.811c-19.671 0-35.676 16.006-35.676 35.68 0 .625.017 1.245.05 1.862a123.41 123.41 0 0 0-1.543 4.1s-2.271 5.928-3.203 8.105c-.914 2.14-1.877 4.02-2.863 5.587-.957 1.524-1.978 2.782-3.034 3.737-1.002.909-2.097 1.55-3.253 1.907-.803.249-1.492.34-2.05.285-.547-.058-1.018-.204-1.4-.434-.39-.234-.7-.523-.945-.885a4.9 4.9 0 0 1-.63-1.3 5.741 5.741 0 0 1-.25-1.57 4.48 4.48 0 0 1 .16-1.34c.082-.23.124-.543.004-.926-.274-.89-1.104-1.34-1.972-1.071-.369.112-1.019.465-1.236 1.56-.085.439-.12.934-.106 1.473.015.496.059 1.002.132 1.508.076.53.165.954.27 1.292.226.733.564 1.44 1.006 2.105.473.709 1.08 1.3 1.808 1.757.72.452 1.564.757 2.513.908.314.05.642.075.982.075.686 0 1.425-.102 2.226-.308 2.104-.651 3.99-1.824 5.606-3.483 1.556-1.598 3.04-3.767 4.416-6.45 1.006-1.98 3.12-6.622 4.06-9.199l.288-.776c3.83 15.573 17.904 27.16 34.64 27.16 19.672 0 35.676-16.006 35.676-35.679a35.46 35.46 0 0 0-5.569-19.107c1.001-1.581 1.976-2.94 2.9-4.017 1.05-1.225 1.976-2.171 2.754-2.813 1.074-.882 1.356-1.052 1.376-1.064.684-.34.988-1.072.757-1.822" fill="#C6C6C6" mask="url(#b)"/></g><g transform="translate(92.9 4.166)"><mask id="d" fill="#fff"><use xlink:href="#c"/></mask><path d="M2.188 5.342C5.372 3.49 9.623 3.904 10.348 9.4c.546 4.133 4.915 1.87 2.489-3.318C10.556 1.204 7.549-1.385.533 2.693l1.655 2.65z" fill="#C6C6C6" mask="url(#d)"/></g></g></svg>