<svg id="Layer_2" xmlns="http://www.w3.org/2000/svg" viewBox="0 0 97.2 98.2"><style>.st0{fill:#c6c5c4}</style><path class="st0" d="M73.9 81.6c-1.7 0-3.3-.5-4.6-1.5-1.1-.9-1.7-2.1-1.8-3.5 0-.5 0-1.1.1-1.7-6.3 3.9-11 4.8-14.1 2.6-2.1-1.4-3.2-3.4-3.2-5.7 0-1.9.7-3.9 1.8-5.9-2.3.8-4.6 1.1-6.5.6-1.9-.6-3.3-2-4-4-1.2-3.7.6-6.8 1.9-9.2.6-1 1.4-2.4 1.2-2.9 0-.2-.3-.4-.9-.8-2.5-1.4-7.2 2.5-10.2 5.8-1 1.3-1.9 2.2-2.1 2.5-.7.8-1.9.9-2.8.2s-.9-1.9-.3-2.7c.3-.3 1.1-1.4 2.3-2.7 2.7-3.5 5.6-8.1 5.3-10.6-.1-.6-.3-.9-.7-1.2 0 0-2.6-1-11.7 9.4-4.3 4.9-8.2 10.2-9.5 12-.2.3-.4.5-.4.6-.6.9-1.9 1.1-2.8.5s-1.1-1.9-.5-2.8c0 0 .2-.3.5-.7 3-4.2 18-25.3 20.4-30.3 1.1-2.3 1.1-4.7-.1-6.2-1.3-1.6-3.9-2.1-7.4-1.4C14.6 24 4 37.2 4 51.1c0 1.1-.9 2-2 2s-2-.9-2-2c0-16 12.1-30.6 22.9-33 6.8-1.5 10.1 1.1 11.4 2.8 2.1 2.7 2.4 6.7.6 10.4-.7 1.4-2.3 4-4.3 7 2.9-1.8 5.2-2 7-.7 1.4 1 2.2 2.4 2.4 4.1.2 1.4-.1 2.9-.7 4.5 2.2-.9 4.5-1.1 6.5.1 1.5.8 2.4 1.9 2.7 3.2.6 2.1-.5 4.1-1.6 6-1.1 2-2.2 3.9-1.6 5.9.3 1 .9 1.3 1.3 1.5 3 .9 10-3.1 14.2-6.3.1-.1.2-.1.2-.2.9-.7 2.1-.5 2.8.4.7.9.5 2.1-.4 2.8-.1 0-.1.1-.2.2-3.7 2.9-9.2 8.5-9.1 12.2 0 .6.2 1.6 1.5 2.5 3.1 2.2 12.3-3.8 17.5-8.6.8-.7 2-.7 2.8.1.8.8.8 2 0 2.8-2 2.1-4.7 5.9-4.6 7.8 0 .3.1.5.3.6.8.7 1.9.8 3.4.5 5.7-1.2 13.7-9.3 16.8-15.4.5-1 1.7-1.4 2.7-.9 1 .5 1.4 1.7.9 2.7C92 71 83.1 79.9 76 81.4c-.7.2-1.4.2-2.1.2z"/><path class="st0" d="M49.1 98.2C21.6 98.2 0 76.6 0 49.1 0 22 22 0 49.1 0c10.2 0 20 3.1 28.3 8.9.7.5 1 1.4.7 2.3-.3.8-1 1.4-2 1.4-5-.1-19 .7-24 5.9-.8.8-2 .8-2.8.1-.8-.8-.8-2-.1-2.8 4.6-4.8 13.8-6.5 20.2-7C63.1 5.7 56.2 4 49.1 4 24.2 4 4 24.2 4 49.1c0 25.3 19.8 45.1 45.1 45.1 8.7 0 21-2.1 30.5-11.9 9.4-9.6 11.7-14.7 13.7-23.9.2-1.1 1.3-1.8 2.4-1.5 1.1.2 1.8 1.3 1.5 2.4-2 9.7-4.5 15.4-14.7 25.9-10.5 10.7-24 13-33.4 13z"/></svg>