<svg id="Layer_2" xmlns="http://www.w3.org/2000/svg" viewBox="0 0 99.2 99.2"><style>.st0{fill:#c6c6c6}</style><path class="st0" d="M53.8 82.1c-1.8 0-3.4-.5-4.9-1.6-1.9-1.5-3-3.6-3.2-6.1-.3-3.1.8-6.6 2.4-10.1-1.8.7-3.4.7-4.7-.2-1.5-1-2.1-3.1-1.4-4.8.2-.4.4-.7.8-1.3.8-1.3 2.8-4.4 2.4-6.2-.1-.3-.3-.7-1.1-1.2-1.9-1.1-6 1.8-9.2 5.2-.8.9-1.6 1.9-2.6 3-.9 1-2.4 1.1-3.4.2-1-.9-1.2-2.4-.4-3.4.1-.1.9-1.1 2.2-2.5 2.8-3.5 5.6-8 5.3-10.4-.1-.5-.2-.7-.5-.9-2.4-.4-11.7 9-19.8 20.3-.6.9-1 1.5-1.2 1.6-.8 1.1-2.4 1.4-3.5.6-1.1-.8-1.4-2.4-.6-3.5 0-.1.2-.4.6-.8 5.5-7.6 18.2-25.7 20.3-30.1 1-2.1 1-4.3-.1-5.7-1.2-1.5-3.6-1.9-6.9-1.2C13.7 25.4 5 40.6 5 51.6c0 1.4-1.1 2.5-2.5 2.5S0 53 0 51.6c0-16.2 12.3-31 23.3-33.5 7.1-1.6 10.5 1.2 11.9 3 2.3 2.9 2.5 7 .7 10.9-.6 1.2-1.7 3.1-3.3 5.5 2.3-1 4.2-.9 5.8.2 1.5 1 2.4 2.6 2.6 4.4 0 .4.1 1.7-.5 3.7 2.2-.7 4.2-.6 6 .5 1.8 1 3 2.5 3.4 4.3.7 2.7-.4 5.5-1.6 7.7.6-.5 1.3-1.1 2.1-2 6.8-6.9 9.2-8.9 9.3-8.9 1-.8 2.5-.7 3.4.2.9.9.9 2.4.1 3.4-3.7 4.2-13.2 16.4-12.6 23 .1 1.1.5 2 1.3 2.6 4.1 3.2 15.8-6.9 22.5-14.7.8-.9 2.2-1.2 3.2-.5 1.1.7 1.5 2 1 3.1-1 2.2-2.1 6.2-1.4 7.9.1.3.2.3.3.4 4.2 1.6 10.8-3.1 14.5-10.3.6-1.2 2.1-1.7 3.4-1.1 1.2.6 1.7 2.1 1.1 3.4-4.3 8.5-13.3 15.6-20.8 12.7-1.4-.6-2.5-1.7-3.1-3.1-.3-.8-.5-1.7-.5-2.6-5.2 4.8-12.3 10.3-18.3 10.3z"/><path class="st0" d="M49.6 99.2C22.3 99.2 0 77 0 49.6S22.3 0 49.6 0c15.1 0 29.2 6.8 38.7 18.6.7.9.7 2.2 0 3.1-.7.9-2 1.2-3.1.6-.2-.1-18.1-9.2-31.9-2.4-1.2.6-2.7.1-3.3-1.2-.6-1.2-.1-2.7 1.2-3.3 8.5-4.2 18.1-3.3 25.2-1.5C68.7 8.2 59.4 5 49.6 5 25 5 5 25 5 49.6s20 44.6 44.6 44.6c6.8 0 13.4-1.5 19.5-4.5 1.2-.6 2.7-.1 3.3 1.2.6 1.2.1 2.7-1.2 3.3-6.7 3.3-14 5-21.6 5zm31.9-12.5c-.7 0-1.3-.3-1.8-.8-.9-1-.9-2.6.1-3.5C89 74 94.2 62 94.2 49.6c0-1.4 1.1-2.5 2.5-2.5s2.5 1.1 2.5 2.5c0 13.8-5.8 27.1-16 36.5-.5.4-1.1.6-1.7.6z"/></svg>