<?xml version="1.0" encoding="utf-8"?>
<!-- Generator: Adobe Illustrator 21.0.0, SVG Export Plug-In . SVG Version: 6.00 Build 0)  -->
<svg version="1.1" id="Layer_1" xmlns="http://www.w3.org/2000/svg" xmlns:xlink="http://www.w3.org/1999/xlink" x="0px" y="0px"
	 viewBox="0 0 145 26.8" style="enable-background:new 0 0 145 26.8;" xml:space="preserve">
<style type="text/css">
	.st0{fill:#FFFFFF;}
</style>
<g>
	<g>
		<g>
			<path class="st0" d="M12.4,0c1.3,0,2.4,0.1,3.4,0.3c1,0.2,1.9,0.6,2.7,1.1c0.7,0.5,1.3,1.2,1.7,2c0.4,0.8,0.6,1.9,0.6,3.1
				c0,1.3-0.3,2.4-0.9,3.3c-0.6,0.9-1.5,1.6-2.7,2.2c1.6,0.5,2.8,1.3,3.6,2.5c0.8,1.2,1.2,2.6,1.2,4.2c0,1.3-0.3,2.5-0.8,3.5
				c-0.5,1-1.2,1.8-2.1,2.4c-0.9,0.6-1.9,1.1-3,1.4c-1.1,0.3-2.3,0.4-3.4,0.4H0V0H12.4z M11.7,10.6c1,0,1.9-0.2,2.6-0.7
				c0.7-0.5,1-1.3,1-2.4c0-0.6-0.1-1.1-0.3-1.5c-0.2-0.4-0.5-0.7-0.9-0.9c-0.4-0.2-0.8-0.4-1.3-0.5c-0.5-0.1-1-0.1-1.5-0.1H5.8v6.2
				H11.7z M12,21.8c0.6,0,1.1-0.1,1.6-0.2c0.5-0.1,1-0.3,1.4-0.6c0.4-0.3,0.7-0.6,0.9-1.1c0.2-0.4,0.3-1,0.3-1.7
				c0-1.4-0.4-2.3-1.1-2.9c-0.8-0.6-1.8-0.9-3-0.9H5.8v7.3H12z"/>
			<path class="st0" d="M30.3,21.8c0.8,0.8,1.9,1.2,3.4,1.2c1.1,0,2-0.3,2.7-0.8c0.8-0.5,1.2-1.1,1.4-1.7h4.6
				c-0.7,2.3-1.9,3.9-3.4,4.9c-1.5,1-3.4,1.5-5.5,1.5c-1.5,0-2.9-0.2-4.1-0.7c-1.2-0.5-2.2-1.2-3.1-2c-0.8-0.9-1.5-1.9-1.9-3.2
				c-0.5-1.2-0.7-2.6-0.7-4.1c0-1.4,0.2-2.8,0.7-4c0.5-1.2,1.1-2.3,2-3.2c0.9-0.9,1.9-1.6,3.1-2.1c1.2-0.5,2.5-0.8,4-0.8
				c1.6,0,3,0.3,4.2,0.9c1.2,0.6,2.2,1.5,3,2.5c0.8,1.1,1.3,2.3,1.7,3.6c0.3,1.4,0.5,2.8,0.4,4.2H29C29,19.6,29.5,21,30.3,21.8z
				 M36.3,11.7c-0.6-0.7-1.7-1.1-3-1.1c-0.8,0-1.5,0.1-2.1,0.4c-0.5,0.3-1,0.6-1.3,1.1c-0.3,0.4-0.6,0.9-0.7,1.3
				C29.1,14,29,14.4,29,14.8h8.5C37.4,13.4,37,12.4,36.3,11.7z"/>
			<path class="st0" d="M50.2,0v9.9h0.1C51,8.8,51.8,8,52.9,7.5c1-0.5,2-0.8,3-0.8c1.4,0,2.5,0.2,3.4,0.6c0.9,0.4,1.6,0.9,2.1,1.6
				c0.5,0.7,0.9,1.5,1.1,2.5c0.2,1,0.3,2,0.3,3.2v11.7h-5.3V15.6c0-1.6-0.2-2.8-0.7-3.5c-0.5-0.8-1.4-1.2-2.6-1.2
				c-1.4,0-2.4,0.4-3.1,1.3c-0.6,0.8-1,2.2-1,4.2v10H45V0H50.2z"/>
			<path class="st0" d="M66.6,10.1c0.5-0.8,1.2-1.5,2.1-2c0.8-0.5,1.8-0.8,2.8-1.1c1-0.2,2.1-0.3,3.2-0.3c1,0,1.9,0.1,2.9,0.2
				c1,0.1,1.9,0.4,2.7,0.8c0.8,0.4,1.5,0.9,2,1.6c0.5,0.7,0.8,1.6,0.8,2.8v9.9c0,0.9,0.1,1.7,0.1,2.5c0.1,0.8,0.4,1.4,0.6,1.8
				l-5.4,0c-0.2-0.2-0.3-0.6-0.3-0.9c-0.1-0.3-0.1-0.6-0.1-0.9c-0.8,0.9-1.8,1.5-2.9,1.8c-1.1,0.3-2.3,0.5-3.5,0.5
				c-0.9,0-1.8-0.1-2.5-0.3c-0.8-0.2-1.5-0.6-2.1-1c-0.6-0.5-1-1.1-1.4-1.8c-0.3-0.7-0.5-1.6-0.5-2.6c0-1.1,0.2-2,0.6-2.7
				c0.4-0.7,0.9-1.3,1.5-1.7c0.6-0.4,1.3-0.7,2.1-0.9c0.8-0.2,1.6-0.4,2.3-0.5c0.8-0.1,1.6-0.2,2.3-0.3c0.8-0.1,1.4-0.2,2-0.3
				c0.6-0.1,1.1-0.4,1.4-0.6c0.3-0.3,0.5-0.7,0.5-1.2c0-0.6-0.1-1-0.3-1.3c-0.2-0.3-0.4-0.6-0.7-0.8c-0.3-0.2-0.7-0.3-1.1-0.4
				c-0.4-0.1-0.8-0.1-1.3-0.1c-1,0-1.8,0.2-2.4,0.7c-0.6,0.5-0.9,1.2-1,2.2h-5.3C65.7,11.9,66,10.9,66.6,10.1z M76.9,17.5
				c-0.3,0.1-0.7,0.2-1.1,0.3c-0.4,0.1-0.8,0.1-1.2,0.2c-0.4,0-0.8,0.1-1.2,0.2c-0.4,0.1-0.8,0.2-1.2,0.3c-0.4,0.1-0.7,0.3-1,0.5
				c-0.3,0.2-0.5,0.5-0.7,0.8c-0.2,0.3-0.3,0.7-0.3,1.2c0,0.5,0.1,0.9,0.3,1.2c0.2,0.3,0.4,0.6,0.7,0.8c0.3,0.2,0.6,0.3,1,0.4
				c0.4,0.1,0.8,0.1,1.2,0.1c1,0,1.8-0.2,2.4-0.5c0.6-0.3,1-0.8,1.3-1.2c0.3-0.5,0.4-1,0.5-1.5c0.1-0.5,0.1-0.9,0.1-1.2v-2
				C77.5,17.2,77.2,17.4,76.9,17.5z"/>
			<path class="st0" d="M90.8,7.3v2.7H91c0.7-1.1,1.5-1.9,2.6-2.4c1.1-0.5,2.1-0.8,3.2-0.8c1.4,0,2.6,0.2,3.4,0.6
				c0.9,0.4,1.6,0.9,2.1,1.6c0.5,0.7,0.9,1.5,1.1,2.5c0.2,1,0.3,2,0.3,3.2v11.7h-5.3V15.6c0-1.6-0.2-2.8-0.7-3.5
				c-0.5-0.8-1.4-1.3-2.6-1.3c-1.4,0-2.5,0.5-3.1,1.4c-0.6,0.8-1,2.2-1,4.2v10h-5.2V7.3H90.8z"/>
			<path class="st0" d="M115.4,10.7c-0.8,0-1.5,0.2-2.1,0.6c-0.6,0.4-1,0.9-1.4,1.5c-0.4,0.6-0.6,1.3-0.8,2
				c-0.1,0.7-0.2,1.4-0.2,2.2c0,0.7,0.1,1.4,0.2,2.1c0.2,0.7,0.4,1.4,0.7,1.9c0.3,0.6,0.8,1,1.4,1.4c0.6,0.4,1.2,0.6,2.1,0.6
				c1.3,0,2.2-0.4,2.9-1c0.7-0.7,1.1-1.6,1.3-2.8h5.1c-0.3,2.5-1.3,4.5-3,5.8c-1.6,1.3-3.7,2-6.2,2c-1.4,0-2.7-0.2-3.9-0.7
				c-1.2-0.5-2.2-1.2-3.1-2c-0.8-0.9-1.5-1.9-2-3.1c-0.5-1.2-0.7-2.5-0.7-3.9c0-1.5,0.2-2.9,0.6-4.1c0.4-1.3,1.1-2.4,1.9-3.3
				c0.8-0.9,1.9-1.6,3.1-2.2c1.2-0.5,2.6-0.8,4.1-0.8c1.1,0,2.2,0.2,3.3,0.4c1,0.3,2,0.7,2.8,1.3c0.8,0.6,1.5,1.3,2,2.2
				c0.5,0.9,0.8,2,0.9,3.2h-5.1C119,11.8,117.7,10.7,115.4,10.7z"/>
			<rect x="27.9" y="1.8" class="st0" width="10.7" height="2.6"/>
			<path class="st0" d="M132.4,21.8c0.8,0.8,2,1.2,3.5,1.2c1.1,0,2-0.3,2.7-0.8c0.8-0.5,1.2-1.1,1.4-1.7h4.6
				c-0.7,2.3-1.9,3.9-3.4,4.9c-1.5,1-3.4,1.5-5.5,1.5c-1.5,0-2.9-0.2-4.1-0.7c-1.2-0.5-2.2-1.2-3.1-2c-0.8-0.9-1.5-1.9-1.9-3.2
				c-0.5-1.2-0.7-2.6-0.7-4.1c0-1.4,0.2-2.8,0.7-4c0.5-1.2,1.1-2.3,2-3.2c0.9-0.9,1.9-1.6,3.1-2.1c1.2-0.5,2.5-0.8,4-0.8
				c1.6,0,3,0.3,4.2,0.9c1.2,0.6,2.2,1.5,3,2.5c0.8,1.1,1.3,2.3,1.7,3.6c0.3,1.4,0.5,2.8,0.4,4.2h-13.8
				C131.1,19.6,131.6,21,132.4,21.8z M138.5,11.7c-0.6-0.7-1.7-1.1-3-1.1c-0.8,0-1.5,0.1-2.1,0.4c-0.5,0.3-1,0.6-1.4,1.1
				c-0.3,0.4-0.6,0.9-0.7,1.3c-0.1,0.5-0.2,0.9-0.2,1.3h8.6C139.6,13.4,139.1,12.4,138.5,11.7z"/>
		</g>
	</g>
</g>
</svg>
