<svg xmlns="http://www.w3.org/2000/svg" width="3899.155" height="952.437" viewBox="0 0 3899.155 952.437">
  <defs>
    <style>
      .cls-1 {
        fill: #c6c6c6;
        fill-rule: evenodd;
      }
    </style>
  </defs>
  <path id="dribbble.svg" class="cls-1" d="M3893.49,752.667C3730.55,1028.92,3472.5,948.764,3395,886c-32.98,22.38-90.82,71.425-167.94,65.766C3062.82,939.714,3004,705,3004,705c1.18,0.937-48.92,17.289-76,17-0.35,68.826-59.85,233.245-220.42,231.151-180.19-2.35-216.82-270.8-216.82-270.8s-17.93,24.9-86.11,49.7c3.43-52.883.92,213.041-215.04,216.952-170.73,3.092-216.82-270.8-216.82-270.8s-29.62,30.776-87.02,41.449c3.65-53.744-2.28,230.254-218.27,229.352-145.96-.609-195.84-168.713-191.96-192.048,4.95-29.738-49.33,196.233-191.11,192.715-58.51-1.726-102.13-44.078-129.5-100.567-36.64,41.932-89.84,100.567-149.52,100.567-107.124,0-154.345-89.608-146.351-345.513,0.679-30.353-1.509-42.294-31.683-46.825-18.105-3.021-36.659-8.744-56.273-11.765-6.289,20.99-59.644,397.269-243.079,404.411-61.543,2.4-95.194-50.908-122.829-90.485-42.362,56.046-98.282,92.27-177.945,92.27C92.307,951.766.366,842.678,0.366,708.112S92.307,464.458,227.25,464.458c23.859,0,30.557,3.425,52.354,9.783C234.778,66.11,340.639,2.325,433.245,2.325c88.9,0,240.792,206.351,27.077,729.764C507.774,888.21,610.061,879.385,659.222,558c10-65.336-16.753-153.49,24.863-165.794,76.052-22.486,84.122,44.979,119.786,56.22,37.707,11.884,59.714,10.724,95.924,18.276,61.858,12.084,86,45.315,78.453,119.328-9.052,93.65-24.883,229.944,23.392,246.559,34.81,12.063,98.37-60.123,109.52-99.623s13.48-53.017,14.47-81.985c1.51-61.93,3.4-107.316,13.96-154.141,4.52-18.125,9.67-30.128,30.17-30.947,16.87-.425,47.72-5.508,61.3,5.065,18.1,13.6,15.84,27.4,13.76,63.716-21.05,517.842,140.97,259.333,189.28,52.34C1416.9,352.965,1428.71,6.611,1575.38.8c76.28-3.021,110,58.088,113.71,103.7,10.49,128.825-48.28,342.222-125.57,485.732-44.17,292.824,193.14,350.714,231.09,116.988-62.09-29.523-129.19-149.013-74.59-207.243,30.64-32.673,158.18,14.274,160.27,116.665,62.56-16.733,70.91-52.051,71.78-46.2C1934.87,336.385,1950.82,6.611,2097.5.8c76.27-3.021,109.99,58.088,113.7,103.7,10.49,128.825-48.28,342.222-125.56,485.732-44.18,292.824,193.14,350.714,231.08,116.988-45.97-8.87-143.01-135.959-87.02-207.243,29.92-38.089,156.99,41.129,171.22,120.055,60.1-17.01,68.26-51.212,69.12-45.447-17.2-234.054-1.25-563.828,145.43-569.637,76.27-3.021,109.99,58.088,113.7,103.7,10.49,128.825-48.28,342.222-125.57,485.732C2559.43,887.2,2796.74,945.09,2834.69,711.364,2771.52,700.835,2681.74,566.648,2754,498c28.87-27.432,139.18,43.772,165,125,35.88-1.384,58.21-13.748,63-15C2924.72,333.233,2967.36,3.552,3125.15.8c85.28-1.486,168.66,46.106,132.06,307.511C3222.28,557.734,3096.71,662.4,3097,664c7.31,29.88,71.74,279.945,234,148-8.4-19.021-16.81-38.446-21.51-61.989C3282.6,612.9,3335.42,458.03,3479,433c82.26-14.34,159.75,25.707,172,116,20.16,147.739-113.25,254.737-163.98,277.947-22.72-12.91,205.97,133.762,341.69-160.165,7.87-16.785,17.36-15.357,29.65-6.71C3867.04,666.182,3916.49,713.022,3893.49,752.667ZM325.409,671.81c-6.906-20.654-21.078-66.138-26.089-85.853-27.595-24-47.295-27.9-82.727-27.9-78.73,0-125.069,72.8-125.069,151.289s50.483,151.289,129.213,151.289c68.229,0,120.157-46.393,136-112.064C345.648,722.966,334.648,699.443,325.409,671.81ZM431.316,110.36c-55.32,0-74.086,131.966-70.444,244.546,3.221,99.537,31.034,187.163,45.462,226.419,3.663,4.929,2.983,1.723,6.253,6.942C508.638,377.812,468.8,110.36,431.316,110.36Zm1151.964,4.145c-71.5-8.2-71.04,289.645-62.16,356.457C1558.25,411.555,1622.76,130.5,1583.28,114.505Zm522.11,0c-71.5-8.2-71.04,289.645-62.16,356.457C2080.36,411.555,2144.87,130.5,2105.39,114.505Zm517.97,4.144c-71.5-8.2-71.04,289.646-62.16,356.458C2598.33,415.7,2662.84,134.643,2623.36,118.649ZM3133.04,97.07c-111.4,22.37-85.46,393.792-68.54,458.93C3195.72,375.776,3198.42,90.3,3133.04,97.07Zm417.49,464.146c-5.66-23.676-33.98-36.34-53.53-33.216-55.93,7.637-110.18,77.3-89.18,183.364,4.67,23.616,16.37,45.355,16.18,44.636C3549.18,672.019,3559.82,605.837,3550.53,561.216ZM1191.69,383.92A80.825,80.825,0,1,1,1272.5,303.1,80.815,80.815,0,0,1,1191.69,383.92Z" transform="translate(-0.375 -0.719)"/>
</svg>
