<?xml version="1.0" encoding="utf-8"?>
<!-- Generator: Adobe Illustrator 21.0.0, SVG Export Plug-In . SVG Version: 6.00 Build 0)  -->
<svg version="1.1" id="Layer_1" xmlns="http://www.w3.org/2000/svg" xmlns:xlink="http://www.w3.org/1999/xlink" x="0px" y="0px"
	 viewBox="0 0 170 40" style="enable-background:new 0 0 170 40;" xml:space="preserve">
<style type="text/css">
	.st0{fill:#FFFFFF;}
</style>
<g>
	<g>
		<polygon class="st0" points="0,5.9 6.2,5.9 6.2,28.4 17.6,28.4 17.6,34.1 0,34.1 		"/>
		<g>
			<path class="st0" d="M20.3,15h5.9v19.1h-5.9V15z M23.3,5.5c1.9,0,3.4,1.5,3.4,3.4s-1.5,3.4-3.4,3.4s-3.4-1.5-3.4-3.4
				S21.4,5.5,23.3,5.5"/>
		</g>
		<polygon class="st0" points="51,5.9 57,5.9 57,22.8 63.7,15 71,15 63.2,23.8 70.8,34.1 63.3,34.1 57.1,24.6 57,24.6 57,34.1 
			51,34.1 		"/>
		<path class="st0" d="M29.5,15h5.7v2.6h0.1c0.8-1.5,2.7-3.1,5.6-3.1c6,0,7.1,4,7.1,9.1v10.5h-5.9v-9.3c0-2.2,0-5.1-3.1-5.1
			c-3.1,0-3.6,2.4-3.6,4.9v9.4h-5.9V15z"/>
		<path class="st0" d="M83.4,22.3c0-2-1.5-3.6-3.6-3.6c-2.6,0-4,1.8-4.2,3.6H83.4z M88.5,30.8c-1.9,2.4-5,3.8-8.1,3.8
			c-5.9,0-10.7-4-10.7-10.1c0-6.1,4.7-10.1,10.7-10.1c5.5,0,9,4,9,10.1v1.9H75.6c0.5,2.3,2.2,3.7,4.5,3.7c1.9,0,3.2-1,4.2-2.3
			L88.5,30.8z"/>
		<path class="st0" d="M101.7,19.6c-3,0-4.7,2-4.7,4.9c0,2.9,1.8,4.9,4.7,4.9c3,0,4.7-2,4.7-4.9C106.5,21.6,104.7,19.6,101.7,19.6
			 M111.9,34.1h-5.5v-2.5h-0.1c-0.9,1.4-3.2,3-5.9,3c-5.7,0-9.5-4.1-9.5-9.9c0-5.3,3.3-10.2,8.8-10.2c2.5,0,4.7,0.7,6.1,2.5h0.1v-11
			h5.9V34.1z"/>
	</g>
	<g>
		<path class="st0" d="M166,30.8c0.8-0.1,1.3-0.6,1.3-1.3c0-1-0.6-1.4-1.8-1.4h-1.9v5h0.7v-2.2h0.9l0,0l1.4,2.2h0.8L166,30.8
			L166,30.8z M165.2,30.3h-0.8v-1.7h1.1c0.5,0,1.2,0.1,1.2,0.8C166.6,30.3,165.9,30.3,165.2,30.3z"/>
		<path class="st0" d="M165.3,25.9c-2.7,0-4.7,2.1-4.7,4.7c0,2.7,2.1,4.7,4.7,4.7c2.7,0,4.7-2.1,4.7-4.7
			C170,27.9,167.9,25.9,165.3,25.9z M165.3,34.7c-2.3,0-4-1.8-4-4.1c0-2.3,1.8-4.1,4-4.1c2.3,0,4,1.8,4,4.1
			C169.3,32.9,167.5,34.7,165.3,34.7z"/>
	</g>
</g>
<path class="st0" d="M154.9,0h-34.1c-1.6,0-3,1.3-3,2.9v34.2c0,1.6,1.3,2.9,3,2.9h34.1c1.6,0,3-1.3,3-2.9V2.9
	C157.9,1.3,156.5,0,154.9,0z M129.7,34.1h-5.9V15h5.9V34.1z M126.8,12.4c-1.9,0-3.4-1.5-3.4-3.4s1.5-3.4,3.4-3.4
	c1.9,0,3.4,1.5,3.4,3.4S128.7,12.4,126.8,12.4z M152,34.1H146v-9.3c0-2.2,0-5.1-3.1-5.1c-3.1,0-3.6,2.4-3.6,4.9v9.4h-5.9V15h5.7v2.6
	h0.1c0.8-1.5,2.7-3.1,5.6-3.1c6,0,7.1,4,7.1,9.1V34.1z"/>
</svg>
