<?xml version="1.0" encoding="utf-8"?>
<!-- Generator: Adobe Illustrator 21.0.0, SVG Export Plug-In . SVG Version: 6.00 Build 0)  -->
<svg version="1.1" id="Layer_2" xmlns="http://www.w3.org/2000/svg" xmlns:xlink="http://www.w3.org/1999/xlink" x="0px" y="0px"
	 viewBox="0 0 97.2 98.2" style="enable-background:new 0 0 97.2 98.2;" xml:space="preserve">
<style type="text/css">
	.st0{fill:#C6C5C4;}
</style>
<path class="st0" d="M73.9,81.6c-1.7,0-3.3-0.5-4.6-1.5c-1.1-0.9-1.7-2.1-1.8-3.5c0-0.5,0-1.1,0.1-1.7c-6.3,3.9-11,4.8-14.1,2.6
	c-2.1-1.4-3.2-3.4-3.2-5.7c0-1.9,0.7-3.9,1.8-5.9c-2.3,0.8-4.6,1.1-6.5,0.6c-1.9-0.6-3.3-2-4-4c-1.2-3.7,0.6-6.8,1.9-9.2
	c0.6-1,1.4-2.4,1.2-2.9c0-0.2-0.3-0.4-0.9-0.8c-2.5-1.4-7.2,2.5-10.2,5.8c-1,1.3-1.9,2.2-2.1,2.5c-0.7,0.8-1.9,0.9-2.8,0.2
	s-0.9-1.9-0.3-2.7c0.3-0.3,1.1-1.4,2.3-2.7c2.7-3.5,5.6-8.1,5.3-10.6c-0.1-0.6-0.3-0.9-0.7-1.2c0,0-2.6-1-11.7,9.4
	c-4.3,4.9-8.2,10.2-9.5,12c-0.2,0.3-0.4,0.5-0.4,0.6c-0.6,0.9-1.9,1.1-2.8,0.5s-1.1-1.9-0.5-2.8c0,0,0.2-0.3,0.5-0.7
	c3-4.2,18-25.3,20.4-30.3c1.1-2.3,1.1-4.7-0.1-6.2c-1.3-1.6-3.9-2.1-7.4-1.4C14.6,24,4,37.2,4,51.1c0,1.1-0.9,2-2,2s-2-0.9-2-2
	c0-16,12.1-30.6,22.9-33c6.8-1.5,10.1,1.1,11.4,2.8c2.1,2.7,2.4,6.7,0.6,10.4c-0.7,1.4-2.3,4-4.3,7c2.9-1.8,5.2-2,7-0.7
	c1.4,1,2.2,2.4,2.4,4.1c0.2,1.4-0.1,2.9-0.7,4.5c2.2-0.9,4.5-1.1,6.5,0.1c1.5,0.8,2.4,1.9,2.7,3.2c0.6,2.1-0.5,4.1-1.6,6
	c-1.1,2-2.2,3.9-1.6,5.9c0.3,1,0.9,1.3,1.3,1.5c3,0.9,10-3.1,14.2-6.3c0.1-0.1,0.2-0.1,0.2-0.2c0.9-0.7,2.1-0.5,2.8,0.4
	c0.7,0.9,0.5,2.1-0.4,2.8c-0.1,0-0.1,0.1-0.2,0.2c-3.7,2.9-9.2,8.5-9.1,12.2c0,0.6,0.2,1.6,1.5,2.5c3.1,2.2,12.3-3.8,17.5-8.6
	c0.8-0.7,2-0.7,2.8,0.1c0.8,0.8,0.8,2,0,2.8c-2,2.1-4.7,5.9-4.6,7.8c0,0.3,0.1,0.5,0.3,0.6c0.8,0.7,1.9,0.8,3.4,0.5
	c5.7-1.2,13.7-9.3,16.8-15.4c0.5-1,1.7-1.4,2.7-0.9c1,0.5,1.4,1.7,0.9,2.7C92,71,83.1,79.9,76,81.4C75.3,81.6,74.6,81.6,73.9,81.6z"
	/>
<path class="st0" d="M49.1,98.2C21.6,98.2,0,76.6,0,49.1C0,22,22,0,49.1,0c10.2,0,20,3.1,28.3,8.9c0.7,0.5,1,1.4,0.7,2.3
	c-0.3,0.8-1,1.4-2,1.4c-5-0.1-19,0.7-24,5.9c-0.8,0.8-2,0.8-2.8,0.1c-0.8-0.8-0.8-2-0.1-2.8C53.8,11,63,9.3,69.4,8.8
	C63.1,5.7,56.2,4,49.1,4C24.2,4,4,24.2,4,49.1c0,25.3,19.8,45.1,45.1,45.1c8.7,0,21-2.1,30.5-11.9c9.4-9.6,11.7-14.7,13.7-23.9
	c0.2-1.1,1.3-1.8,2.4-1.5c1.1,0.2,1.8,1.3,1.5,2.4c-2,9.7-4.5,15.4-14.7,25.9C72,95.9,58.5,98.2,49.1,98.2z"/>
</svg>
