<?xml version="1.0" encoding="UTF-8"?>
<svg width="107px" height="73px" viewBox="0 0 107 73" version="1.1" xmlns="http://www.w3.org/2000/svg" xmlns:xlink="http://www.w3.org/1999/xlink">
    <!-- Generator: Sketch 41 (35326) - http://www.bohemiancoding.com/sketch -->
    <title>Page 1</title>
    <desc>Created with Sketch.</desc>
    <defs>
        <polygon id="path-1" points="0.000174141736 72.1704545 95.9205739 72.1704545 95.9205739 0.811378409 0.000174141736 0.811378409"></polygon>
        <polygon id="path-3" points="13.5649457 11.5380331 13.5649457 0.673488647 0.532760465 0.673488647 0.532760465 11.5380331 13.5649457 11.5380331"></polygon>
    </defs>
    <g id="Index" stroke="none" stroke-width="1" fill="none" fill-rule="evenodd">
        <g id="Desktop-HD" transform="translate(-33.000000, -38.000000)">
            <g id="Page-1" transform="translate(33.000000, 38.000000)">
                <g>
                    <g id="Group-3" transform="translate(0.000000, 0.018250)">
                        <mask id="mask-2" fill="white">
                            <use xlink:href="#path-1"></use>
                        </mask>
                        <g id="Clip-2"></g>
                        <path d="M90.1497395,39.6747534 C90.0767473,39.2491966 89.9863364,38.837742 89.8660651,38.4495148 L89.7416465,38.171617 C89.3401891,37.512958 88.6094372,37.2342307 87.8803442,37.458208 L87.5999876,37.5834693 C86.9422279,37.9841398 86.6618713,38.7149693 86.8874837,39.4466284 C87.0998248,40.131833 87.2101426,40.8825716 87.2159488,41.675617 C87.2209256,42.4728102 87.1205612,43.2293557 86.9165147,43.9261739 C86.7215922,44.5922989 86.425476,45.1854239 86.0381194,45.6872989 C85.7079953,46.1153443 85.3081969,46.3957307 84.8171581,46.5475375 C84.4248248,46.6686511 84.0872357,46.7092989 83.8151736,46.6678216 C83.5464295,46.6255148 83.3274527,46.5409011 83.1482899,46.411492 C82.9425845,46.2605148 82.7692279,46.0664011 82.6199256,45.816708 C82.4349566,45.508117 82.2848248,45.1671739 82.1728481,44.8046625 C81.9281581,44.0124466 81.7888093,43.1563557 81.7581194,42.2621057 C81.7241116,41.2658216 81.7100109,40.4536966 81.7166465,39.8589125 C81.7398713,38.4511739 81.8700961,36.9613102 82.1015147,35.4316284 C82.3379101,33.8687648 82.6008481,32.3598216 82.883693,30.9462761 C83.1640496,29.5435148 83.4618248,28.2759693 83.7712124,27.1793102 C84.0772822,26.0876284 84.3319256,25.2564239 84.5268481,24.7114125 C85.0427705,23.2762989 85.6034837,21.9531739 86.1940574,20.7262761 C88.8101659,25.394958 90.3081659,30.769583 90.3081659,36.490958 C90.3081659,37.5652193 90.2525922,38.626208 90.1497395,39.6747534 M57.9502047,68.8523557 C49.4051349,68.8523557 41.6281426,65.5159239 35.8377008,60.0848898 C36.2947318,60.1404693 36.7733287,60.098992 37.2668558,59.9463557 C38.2613752,59.6385943 38.9979333,59.0852875 39.4566233,58.301367 C39.8506155,57.6269466 40.0770574,56.8811852 40.1293132,56.0848216 C40.1765922,55.3714125 40.1268248,54.6488784 39.9808403,53.9346398 C39.8464682,53.282617 39.7170729,52.7558557 39.5835302,52.3220034 C39.4781891,51.9835489 39.3736775,51.6641739 39.2666775,51.3630489 C39.1712899,51.0942761 39.0767318,50.8055943 38.9821736,50.5011511 C38.4836698,48.8860261 38.0838713,47.2717307 37.7927318,45.7014011 C38.4562977,43.6067989 39.2301814,41.5105375 40.0953054,39.4623898 C41.0052202,37.3072307 41.9748558,35.215117 42.9776698,33.244117 C43.9763364,31.280583 45.0231116,29.4149352 46.0881349,27.7010943 C46.4589023,27.1054807 46.8288403,26.5413898 47.1987783,25.9922307 C47.2452279,26.0220943 47.2833829,26.0619125 47.3314915,26.090117 C48.0647318,26.5239693 48.8352977,26.8101625 49.6241116,26.9412307 C50.3780884,27.0656625 51.066538,27.0905489 51.6712124,27.0134011 C51.9648403,26.9760716 52.1987473,26.9428898 52.399476,26.8989239 C52.3455612,27.1826284 52.2908171,27.4646739 52.2377318,27.7575034 C51.9217085,29.5036966 51.6347163,31.3909125 51.3850496,33.3668898 C51.1312357,35.3652648 50.968662,37.421708 50.9006465,39.4806398 C50.8309721,41.5437193 50.8699566,43.6275375 51.0151116,45.672367 C51.162755,47.7561852 51.4895612,49.7570489 51.9988481,51.665833 C52.1481504,52.1486284 52.3231659,52.6480148 52.5189178,53.153208 C52.7312589,53.6973898 52.9983442,54.229958 53.3110496,54.7326625 C53.6386853,55.2619125 54.042631,55.7604693 54.5121039,56.2134011 C54.9998248,56.684583 55.5754682,57.0852534 56.2265922,57.405458 C58.0605225,58.3071739 60.0694682,58.4282875 62.1937085,57.7729466 C63.3375302,57.4203898 64.2938946,56.8894807 65.0395767,56.1951511 C65.7271969,55.553083 66.2829333,54.888617 66.6918558,54.2200034 C67.096631,53.5571966 67.3786465,52.9765148 67.5553209,52.4422875 C67.6540264,52.140333 67.718724,51.9445602 67.7510729,51.8557989 C67.8132822,51.7172648 67.8489488,51.5712648 67.8671969,51.4236057 C67.9700496,51.4277534 68.0720729,51.439367 68.1749256,51.439367 L68.2288403,51.439367 C69.3063054,51.4327307 70.317414,51.2850716 71.2356233,51.001367 C72.6307705,50.570833 73.8650031,50.0059125 74.9034837,49.3248557 C75.9353287,48.6462875 76.8510496,47.8582193 77.622445,46.9797307 C78.1292434,46.402367 78.5920806,45.7826966 79.0051504,45.1281852 C79.0598946,45.343867 79.118786,45.5562307 79.1834837,45.7652761 C79.3842124,46.4164693 79.6562744,47.0220375 79.9872279,47.5620716 C80.3613132,48.1717875 80.8357628,48.6720034 81.3981349,49.0461284 C81.9704605,49.4285489 82.6365147,49.6699466 83.3830264,49.7653443 C84.1104605,49.8541057 84.9142047,49.7670034 85.7685457,49.503208 C86.7414992,49.2012534 87.5551969,48.6628784 88.2162744,47.9220943 C83.5870729,60.1404693 71.7697938,68.8523557 57.9502047,68.8523557 M25.8369333,38.2686739 C26.7659256,35.8455716 27.7521504,33.6066284 28.7657473,31.6140602 C29.7569488,29.6646284 30.8045535,28.004708 31.8787008,26.6807534 C32.7355302,25.6239125 33.6421271,24.8964011 34.626693,24.500708 C34.6341581,24.5679011 34.6416233,24.646708 34.6466,24.739617 C34.6648481,25.0274693 34.6482589,25.414867 34.5993209,25.8794125 C34.4209876,27.4240261 34.2600729,29.000992 34.1223829,30.5663443 C33.9830341,32.1416511 33.8976,33.7775148 33.868569,35.4274807 C33.8403674,37.0782761 33.8735457,38.7805034 33.9672744,40.4868784 C34.0560264,42.1194239 34.2484605,43.8042307 34.5404295,45.4981625 C34.296569,46.3260489 34.0601736,47.1456398 33.8329023,47.9569352 C33.5741116,48.8785602 33.3410341,49.8217534 33.1593829,50.6869693 C33.0457473,51.092617 32.9337705,51.5447193 32.8226233,52.041617 C32.7106465,52.5443216 32.6160884,53.0785489 32.5422667,53.629367 C32.4659566,54.2009239 32.4319488,54.7816057 32.4402434,55.3564807 C32.4468791,55.7662761 32.4991349,56.155333 32.5729566,56.5336057 C28.6355225,51.5571625 26.1289023,45.4044239 25.6760186,38.6934011 C25.7291039,38.553208 25.7830186,38.4080375 25.8369333,38.2686739 M57.9502047,4.12956023 C64.6903752,4.12956023 70.9527783,6.20342386 76.1402047,9.74309432 C75.5911039,9.67921932 75.0121426,9.73562841 74.410786,9.92144659 C73.643538,10.157867 72.9559178,10.5436057 72.368662,11.0678784 C71.8577163,11.5224693 71.3799488,12.0342989 70.9478016,12.5892648 C70.5264372,13.130958 70.1357628,13.7091511 69.7890496,14.308083 C69.5750496,14.6764011 69.3643674,15.0264693 69.1570031,15.357458 C68.1483829,15.5474239 67.2003132,15.6569239 66.3310419,15.6842989 C65.2917318,15.7174807 64.2748171,15.6992307 63.313476,15.6345261 C62.3114915,15.5665034 61.3542977,15.4810602 60.4667783,15.3806852 C59.5162202,15.2736739 58.5399488,15.2006739 57.564507,15.1625148 C56.5633519,15.1251852 55.5198946,15.1633443 54.4639953,15.2761625 C53.3857008,15.3922989 52.2427085,15.6353557 51.066538,15.9986966 C50.3034372,16.235117 49.5378481,16.5561511 48.7896775,16.9526739 C47.9917395,17.3765716 47.2999721,17.8933784 46.7309643,18.4898216 C46.1262899,19.1269125 45.687507,19.8660375 45.4253984,20.6872875 C45.1865147,21.4421739 45.1790496,22.266742 45.3764605,23.1385943 C44.8663442,23.8569807 44.3537395,24.6126966 43.839476,25.4123784 C42.7412744,27.1229011 41.6588326,28.9868898 40.6228403,30.9504239 C39.5851891,32.9164466 38.5840341,35.0085602 37.6475767,37.1695261 C37.4360651,37.6581284 37.2287008,38.1500489 37.0254837,38.644458 C36.991476,37.3951625 36.9956233,36.1525034 37.0379256,34.9405375 C37.0885225,33.4730716 37.174786,32.0006284 37.292569,30.5646852 C37.4120109,29.1187875 37.5530186,27.6728898 37.7106155,26.2643216 C37.7860961,25.588242 37.8093209,25.0307875 37.7836078,24.5620943 C37.7562357,24.0569011 37.6865612,23.6280261 37.5696078,23.252242 C37.3464837,22.529708 36.9383907,21.9722534 36.3552822,21.5964693 C35.9048868,21.3061284 35.1343209,21.0340375 34.0228481,21.379958 C32.8508248,21.7416398 31.7227628,22.4359693 30.6701814,23.443867 C29.6914217,24.3804239 28.7350574,25.550083 27.8284605,26.9221511 C27.3448868,27.6529807 26.8720961,28.4451966 26.4109178,29.2846966 C29.6963984,14.8987193 42.5853364,4.12956023 57.9502047,4.12956023 M84.274693,17.7075602 C84.0084372,18.204458 83.7438403,18.717117 83.4833907,19.2471966 C82.4092434,21.4322193 81.4387783,23.9880489 80.5993674,26.845833 C79.7566388,29.7119125 79.1503054,32.9919352 78.8044217,36.5490261 C78.6244295,37.8812761 78.3133829,39.1803443 77.8804062,40.4122193 C77.4565535,41.6158898 76.8900341,42.7241625 76.1966078,43.7055148 C75.5089876,44.6794011 74.6646,45.552083 73.6866698,46.2986739 C72.7269876,47.031992 71.590631,47.6060375 70.3091194,48.0009011 C69.5692434,48.2298557 68.8144372,48.3335489 68.0612899,48.3111511 C67.3321969,48.289583 66.6246698,48.1319693 65.9569566,47.842458 C65.3033442,47.5587534 64.7310186,47.1340261 64.2101194,46.5433898 C63.6900496,45.955242 63.2769798,45.1738102 62.981693,44.219833 C62.7253907,43.391117 62.5877008,42.442117 62.5702822,41.3968898 C62.5512047,40.3010602 62.6308326,39.138867 62.8083364,37.943492 C62.9883287,36.729867 63.2512667,35.4764239 63.5905147,34.2180034 C63.9347395,32.9454807 64.3328791,31.6795943 64.7724915,30.4560148 C65.2162512,29.2241398 65.6948481,28.0312534 66.1925225,26.909708 C66.6918558,25.7881625 67.1953364,24.7603557 67.6946698,23.8511739 C68.3233984,22.693958 68.9595922,21.5890034 69.5850031,20.5653443 C70.1117085,19.7051057 70.6168481,18.9021057 71.0929566,18.1721057 C71.7366155,18.0227875 72.368662,17.8535602 72.9783132,17.6652534 C73.4054837,17.5333557 73.9388248,17.3550034 74.5824837,17.1301966 C75.2858636,16.8846511 75.9618713,16.5685943 76.5856233,16.1886625 C77.2865147,15.7655943 77.8563519,15.2413216 78.2777163,14.6332648 C78.6567783,14.0874239 79.0267163,13.1749239 78.6410186,11.9231398 C78.5937395,11.7696739 78.5398248,11.6303102 78.4825922,11.4984125 C80.6748481,13.3026739 82.6199256,15.393958 84.274693,17.7075602 M51.8362744,23.7922761 C51.4771194,23.8835261 51.1030341,23.9299807 50.6990884,23.9216852 C50.3125612,23.9158784 49.9492589,23.8611284 49.6207938,23.7582648 C49.3984992,23.688583 49.2110419,23.5815716 49.0393442,23.451333 C49.1090186,23.3642307 49.1778636,23.2696625 49.2467085,23.1833898 C50.2710884,21.9042307 51.2689256,20.8366057 52.2128481,20.011208 C52.9850729,19.3351284 53.6926,18.8714125 54.3204992,18.6291852 C54.3180109,18.6731511 54.314693,18.7204352 54.3088868,18.7726966 C54.2732202,19.098708 54.2217938,19.3849011 54.1662202,19.5897989 C53.8966465,20.4740943 53.5847705,21.627992 53.2388868,23.0199693 C53.1642357,23.3219239 53.0895845,23.6371511 53.0157628,23.9565261 C52.6864682,23.7740261 52.2800341,23.706833 51.8362744,23.7922761 M35.7431426,53.976117 C35.8119876,53.381333 35.9339178,52.6579693 36.106445,51.8201284 C36.1678248,52.0100943 36.2341814,52.2050375 36.3046853,52.404958 C36.396755,52.662117 36.4896543,52.9441625 36.5833829,53.2486057 C36.6978481,53.618583 36.8031891,54.0532648 36.8969178,54.541867 C36.9790341,54.9740602 37.0088946,55.4021057 36.9848403,55.810242 C36.9657628,56.1412307 36.8894527,56.4224466 36.7525922,56.6721398 C36.7252202,56.7202534 36.6538868,56.848833 36.3395225,56.9458898 C36.2449643,56.9749239 36.1943674,56.9740943 36.1379643,56.9384239 C35.9115225,56.7285489 35.7597318,56.492958 35.6776155,56.228333 C35.6759566,56.2216966 35.6402899,56.0773557 35.6303364,55.6244239 C35.6220419,55.2453216 35.6601969,54.6911852 35.7431426,53.976117 M54.1570961,38.0571398 C54.2549721,36.5556625 54.3843674,35.0815602 54.5411349,33.6854352 C54.7883132,31.6115716 55.1001891,29.6911739 55.4676388,27.9781625 C55.8450419,26.2311398 56.1909256,24.6931625 56.5086078,23.3650602 C56.8271194,22.0311511 57.0850806,20.8805716 57.2741969,19.9448443 C57.3961271,19.3384466 57.4508713,18.8108557 57.4475535,18.3446511 C58.2761814,18.368708 59.1222279,18.4242875 59.9649566,18.5130489 C60.8939488,18.6109352 61.8486543,18.6947193 62.8307318,18.762742 C63.8318868,18.8324239 64.9002279,18.8581398 66.0092124,18.8390602 C66.3302124,18.8332534 66.659507,18.8191511 66.9929488,18.7967534 C66.6462357,19.3683102 66.2920574,19.9597761 65.9345612,20.569492 C65.0652899,22.0494011 64.2217318,23.6645261 63.4287705,25.3709011 C62.6341504,27.0814239 61.9009101,28.9329693 61.251445,30.8724466 C60.5970031,32.824367 60.0860574,34.895742 59.7327085,37.029333 C59.4548403,38.7041852 59.3428636,40.2189352 59.4009256,41.5304466 C59.4573287,42.8651852 59.6530806,44.0812989 59.9832047,45.1480943 C60.4443829,46.6429352 61.133662,47.871492 62.0269876,48.7964352 C62.8630806,49.6624807 63.799538,50.3111852 64.8106465,50.7425489 C64.7857628,50.8196966 64.7525845,50.891867 64.7393132,50.973992 C64.7119411,51.0677307 64.655538,51.2411057 64.5717628,51.492458 C64.4722279,51.793583 64.2856,52.1643898 64.0201736,52.5924352 C63.7605535,53.0096966 63.3881271,53.4418898 62.9128481,53.8774011 C62.4906543,54.2647989 61.9374062,54.5659239 61.2680341,54.7724807 C60.6865845,54.9516625 60.0595147,55.0462307 59.3884837,55.0213443 C58.7605845,55.0080716 58.1700109,54.8662193 57.611786,54.6007648 C56.9440729,54.2631398 56.4480574,53.8267989 56.0947085,53.264367 C55.6832977,52.6106852 55.3689333,51.9362648 55.1590806,51.2576966 L55.0222202,50.8163784 C54.6804837,49.5571284 54.4308171,48.218242 54.2798558,46.8345602 C54.1272357,45.4342875 54.0434605,43.9792648 54.0310186,42.513458 C54.0194062,41.0393557 54.0617085,39.540367 54.1570961,38.0571398 M95.8439643,7.66840114 L95.7601891,7.39548068 L95.6623132,7.24782159 C95.2625147,6.63893523 94.5715767,6.37845795 93.8972279,6.58833295 C93.7222124,6.6439125 93.563786,6.73184432 93.4319023,6.84051477 C93.2660109,6.95250341 92.9980961,7.14661705 92.5020806,7.50498068 C91.8293907,7.99192386 91.0173519,8.72358295 90.0186853,9.74226477 C89.0399256,10.7410375 87.9666078,12.0367875 86.8285922,13.5946739 C86.5888791,13.9215148 86.3508248,14.271583 86.1136,14.6282875 C79.5807938,6.22996932 69.3892512,0.811378409 57.9502047,0.811378409 C38.2787938,0.811378409 22.274414,16.817458 22.274414,36.490958 C22.274414,37.1156057 22.2910031,37.7361057 22.3233519,38.3532875 C21.7966465,39.6888557 21.2774062,41.0509693 20.7813907,42.4520716 C20.7813907,42.4520716 18.509507,48.380833 17.5780264,50.5575602 C16.6639643,52.698617 15.7009643,54.578367 14.7147395,56.1453784 C13.7583752,57.6692534 12.7373132,58.9268443 11.681414,59.8824807 C10.6786,60.790833 9.58371628,61.4320716 8.42828217,61.7887761 C7.62536744,62.0376398 6.93608837,62.1288898 6.37869302,62.0741398 C5.83125116,62.0160716 5.36011938,61.8700716 4.97773953,61.6402875 C4.58789457,61.4063557 4.27850698,61.1168443 4.0329876,60.7551625 C3.75594884,60.3470261 3.54443721,59.9098557 3.40342946,59.4552648 C3.24749147,58.9467534 3.16288682,58.419992 3.15210388,57.8857648 C3.14297984,57.3880375 3.19689457,56.9375943 3.31218915,56.5452193 C3.39513488,56.3146057 3.43660775,56.001867 3.31716589,55.6194466 C3.0426155,54.7293443 2.21315814,54.2797307 1.34471628,54.5476739 C0.976437209,54.660492 0.326142636,55.0130489 0.108824806,56.1088784 C0.024220155,56.5468784 -0.0114465116,57.042117 0.00348372093,57.5813216 C0.0175844961,58.0765602 0.0615457364,58.582583 0.134537984,59.0886057 C0.210848062,59.6195148 0.2996,60.042583 0.404111628,60.3810375 C0.630553488,61.1135261 0.968972093,61.8211284 1.41107287,62.4855943 C1.88386357,63.1948557 2.49185581,63.785492 3.21928992,64.2434011 C3.93842946,64.6946739 4.78281705,64.9999466 5.73171628,65.1509239 C6.04608062,65.2006966 6.37371628,65.225583 6.7137938,65.225583 C7.39975504,65.225583 8.13880155,65.1243784 8.94005736,64.9178216 C11.0443907,64.2666284 12.9305767,63.0944807 14.5463597,61.4345602 C16.1015922,59.8368557 17.5863209,57.6675943 18.9623907,54.9856739 C19.967693,53.0055489 22.0819798,48.362583 23.0225845,45.7860148 C23.1179721,45.526367 23.2141891,45.2700375 23.3095767,45.0103898 C27.1400109,60.582617 41.2142434,72.1705375 57.9502047,72.1705375 C77.6216155,72.1705375 93.6259953,56.164458 93.6259953,36.490958 C93.6259953,29.464708 91.5772357,22.912958 88.0570186,17.3840375 C89.0581736,15.8029239 90.032786,14.4441284 90.9568016,13.3665489 C92.0060651,12.1421398 92.932569,11.1956284 93.7114295,10.5543898 C94.7847473,9.67175341 95.0667628,9.50169659 95.0866698,9.49008295 C95.7709721,9.14996932 96.0753829,8.41831023 95.8439643,7.66840114" id="Fill-1" fill="#C6C6C6" mask="url(#mask-2)"></path>
                    </g>
                    <g id="Group-6" transform="translate(92.899225, 4.165977)">
                        <mask id="mask-4" fill="white">
                            <use xlink:href="#path-3"></use>
                        </mask>
                        <g id="Clip-5"></g>
                        <path d="M2.18752791,5.34218977 C5.37181473,3.48898523 9.62278372,3.90375795 10.3485589,9.39949659 C10.8943419,13.532292 15.2630938,11.2684625 12.836931,6.08131477 C10.5559233,1.20441705 7.54914031,-1.38459432 0.532760465,2.69345114 L2.18752791,5.34218977 Z" id="Fill-4" fill="#C6C6C6" mask="url(#mask-4)"></path>
                    </g>
                </g>
            </g>
        </g>
    </g>
</svg>